<?xml version="1.0" encoding="UTF-8"?>
<svg width="23px" height="23px" viewBox="0 0 23 23" version="1.1" xmlns="http://www.w3.org/2000/svg" xmlns:xlink="http://www.w3.org/1999/xlink">
    <!-- Generator: Sketch 52.5 (67469) - http://www.bohemiancoding.com/sketch -->
    <title>plus</title>
    <desc>Created with Sketch.</desc>
    <g id="Page-1" stroke="none" stroke-width="1" fill="none" fill-rule="evenodd">
        <g id="02-Page-Builder" transform="translate(-1832.000000, -229.000000)" fill="#54585A">
            <g id="Group" transform="translate(-7.000000, 0.000000)">
                <g transform="translate(1825.000000, 216.000000)" id="plus">
                    <g transform="translate(14.000000, 13.000000)">
                        <path d="M21.9047598,10.4047598 L12.5952402,10.4047598 L12.5952402,1.09524023 C12.5952402,0.490681641 12.1056816,0 11.5,0 C10.8943184,0 10.4047598,0.490681641 10.4047598,1.09524023 L10.4047598,10.4047598 L1.09524023,10.4047598 C0.489558594,10.4047598 0,10.8954414 0,11.5 C0,12.1045586 0.489558594,12.5952402 1.09524023,12.5952402 L10.4047598,12.5952402 L10.4047598,21.9047598 C10.4047598,22.5093184 10.8943184,23 11.5,23 C12.1056816,23 12.5952402,22.5093184 12.5952402,21.9047598 L12.5952402,12.5952402 L21.9047598,12.5952402 C22.5104414,12.5952402 23,12.1045586 23,11.5 C23,10.8954414 22.5104414,10.4047598 21.9047598,10.4047598 Z" id="Path"></path>
                    </g>
                </g>
            </g>
        </g>
    </g>
</svg>