<?xml version="1.0" encoding="UTF-8"?>
<svg width="18px" height="13px" viewBox="0 0 18 13" version="1.1" xmlns="http://www.w3.org/2000/svg" xmlns:xlink="http://www.w3.org/1999/xlink">
    <!-- Generator: Sketch 52.5 (67469) - http://www.bohemiancoding.com/sketch -->
    <title>dashboard</title>
    <desc>Created with Sketch.</desc>
    <g id="Page-1" stroke="none" stroke-width="1" fill="none" fill-rule="evenodd">
        <g id="Settings_Footer" transform="translate(-35.000000, -144.000000)" fill="#FFFFFF">
            <g id="dashboard" transform="translate(35.000000, 144.000000)">
                <path d="M12.8774531,4.60511719 L8.48731641,8.46495703 C8.48144531,8.47008984 8.47560938,8.47522266 8.47047656,8.48070703 C8.328375,8.62207031 8.25001172,8.81064844 8.25001172,9.01170703 C8.25001172,9.42514453 8.58621094,9.76169531 9,9.76169531 C9.19923047,9.76169531 9.38745703,9.68407031 9.54713672,9.52439062 L13.4070117,5.13425391 C13.5373711,4.98592969 13.5300586,4.76145703 13.3901719,4.62157031 C13.25025,4.48207031 13.0268672,4.47472266 12.8774531,4.60511719 Z" id="Path"></path>
                <path d="M9,0.0117070312 C4.03709766,0.0117070312 0,4.04919141 0,9.01170703 C0,9.94260937 0.14428125,10.8640195 0.427746094,11.7509766 C0.4775625,11.9062617 0.62184375,12.0117305 0.785179688,12.0117305 L17.2148555,12.0117305 C17.3781914,12.0117305 17.5224727,11.9062617 17.5722891,11.7509766 C17.8557188,10.8640195 18,9.94264453 18,9.01170703 C18,4.04919141 13.9629023,0.0117070312 9,0.0117070312 Z M16.1250117,9.38671875 L17.2239961,9.38671875 C17.1950273,10.0209375 17.1101953,10.6504805 16.9365234,11.261707 L1.06347656,11.261707 C0.889804687,10.6504453 0.804972656,10.0209375 0.776003906,9.38671875 L1.87498828,9.38671875 C2.08226953,9.38671875 2.25,9.21898828 2.25,9.01170703 C2.25,8.80442578 2.08226953,8.63669531 1.87498828,8.63669531 L0.768972656,8.63669531 C0.824554687,7.40907422 1.14444141,6.25081641 1.68120703,5.21922656 L2.64181641,5.77402734 C2.70116016,5.80809375 2.76560156,5.82419531 2.82930469,5.82419531 C2.95822266,5.82419531 3.08492578,5.7571875 3.15376172,5.63670703 C3.25775391,5.45726953 3.19623047,5.22801563 3.01679297,5.124375 L2.05832812,4.57080469 C2.70249609,3.56748047 3.55605469,2.71399219 4.55941406,2.06985938 L5.11298438,3.02892188 C5.18182031,3.14905078 5.30855859,3.21641016 5.43744141,3.21641016 C5.50117969,3.21641016 5.56562109,3.20030859 5.62492969,3.16624219 C5.80436719,3.06260156 5.86589063,2.83334766 5.76189844,2.65391016 L5.20723828,1.69301953 C6.23889844,1.15618359 7.39722656,0.836261719 8.62495313,0.780679688 L8.62495313,1.88669531 C8.62495313,2.09397656 8.79268359,2.26170703 8.99996484,2.26170703 C9.20724609,2.26170703 9.37497656,2.09397656 9.37497656,1.88669531 L9.37497656,0.780679688 C10.6027031,0.836261719 11.7610313,1.15618359 12.7926914,1.69301953 L12.2380312,2.65391016 C12.1340391,2.83334766 12.1955625,3.06260156 12.375,3.16624219 C12.4343438,3.20030859 12.4987852,3.21641016 12.5624883,3.21641016 C12.6914062,3.21641016 12.8181094,3.14901563 12.8869453,3.02892188 L13.4405156,2.06985938 C14.443875,2.71399219 15.2974336,3.56748047 15.9416016,4.57080469 L14.9831367,5.124375 C14.8036992,5.22801563 14.7421758,5.45726953 14.846168,5.63670703 C14.9150039,5.7571875 15.0417422,5.82419531 15.170625,5.82419531 C15.2343281,5.82419531 15.2988047,5.80809375 15.3581133,5.77402734 L16.3187227,5.21922656 C16.8554883,6.25085156 17.175375,7.40907422 17.230957,8.63669531 L16.1249414,8.63669531 C15.9176602,8.63669531 15.7499297,8.80442578 15.7499297,9.01170703 C15.75,9.21898828 15.9177305,9.38671875 16.1250117,9.38671875 Z" id="Shape" fill-rule="nonzero"></path>
            </g>
        </g>
    </g>
</svg>