<?xml version="1.0" encoding="UTF-8"?>
<svg width="102px" height="82px" viewBox="0 0 102 82" version="1.1" xmlns="http://www.w3.org/2000/svg" xmlns:xlink="http://www.w3.org/1999/xlink">
    <!-- Generator: sketchtool 52.5 (67469) - http://www.bohemiancoding.com/sketch -->
    <title>09767406-58EA-4110-BF7A-231CDBCCF10D</title>
    <desc>Created with sketchtool.</desc>
    <g id="VERSION-3.0" stroke="none" stroke-width="1" fill="none" fill-rule="evenodd">
        <g id="SCTE_DTP-STANDARDS-CATEGORIES" transform="translate(-512.000000, -1766.000000)" fill="#FFFFFF">
            <g id="Group-11" transform="translate(-13.000000, 1680.000000)">
                <g id="Group-23" transform="translate(525.000000, 86.000000)">
                    <path d="M77.3247431,37.3558186 L82.0796445,37.3558186 C83.5563455,37.3558186 84.7554568,36.1490731 84.7554568,34.6587232 C84.7554568,33.1683734 83.5563455,31.9616278 82.0796445,31.9616278 L77.3247431,31.9616278 C75.8480422,31.9616278 74.6489309,33.1683734 74.6489309,34.6587232 C74.6489309,36.1490731 75.8480422,37.3558186 77.3247431,37.3558186 Z M19.9184671,37.3558186 L24.6714801,37.3558186 C26.1500694,37.3558186 27.3472924,36.1490731 27.3472924,34.6587232 C27.3472924,33.1683734 26.1500694,31.9616278 24.6714801,31.9616278 L19.9184671,31.9616278 C18.4417662,31.9616278 17.2426548,33.1683734 17.2426548,34.6587232 C17.2426548,36.1490731 18.4417662,37.3558186 19.9184671,37.3558186 Z M48.553624,37.3558186 L53.3047487,37.3558186 C54.783338,37.3558186 55.9824493,36.1490731 55.9824493,34.6587232 C55.9824493,33.1683734 54.783338,31.9616278 53.3047487,31.9616278 L48.553624,31.9616278 C47.0769231,31.9616278 45.8778117,33.1683734 45.8778117,34.6587232 C45.8778117,36.1490731 47.0769231,37.3558186 48.553624,37.3558186 Z M5.35351291,44.6058091 L96.6464871,44.6058091 L96.6464871,24.7116373 L5.35351291,24.7116373 L5.35351291,44.6058091 Z M100.364676,19.5287221 C100.045543,19.3935818 99.6924188,19.3174464 99.3222994,19.3174464 L2.67581227,19.3174464 C1.55412385,19.3174464 0.598611497,20.0121817 0.20016662,20.9962313 C0.071757845,21.3102897 0,21.6528989 0,22.0145419 L0,47.3029046 C0,48.7932544 1.19911136,50 2.67581227,50 L99.3222994,50 C99.6924188,50 100.045543,49.9238646 100.364676,49.786821 C101.323966,49.3794967 102,48.4220945 102,47.3029046 L102,22.0145419 C102,20.8972553 101.323966,19.9379497 100.364676,19.5287221 Z M17.9753402,5.39419087 L84.0189947,5.39419087 L90.960622,14.4619133 L97.7209664,14.4619133 L87.4539295,1.0487647 C87.3387392,0.902204119 87.2103305,0.772773992 87.0724799,0.654764171 C87.063038,0.647150634 87.0554846,0.635730329 87.0460428,0.628116792 C86.8288809,0.449198675 86.5871702,0.314058396 86.3284643,0.211275648 C86.2718134,0.186531653 86.2113857,0.165594427 86.1528464,0.146560585 C85.8884754,0.0590049107 85.616551,0 85.3314079,0 L16.6572619,0 C16.3740072,0 16.1020828,0.0590049107 15.8396001,0.146560585 C15.7791725,0.165594427 15.7206332,0.186531653 15.6639822,0.211275648 C15.4052763,0.314058396 15.1597889,0.449198675 14.9464038,0.628116792 C14.9350736,0.635730329 14.9275201,0.647150634 14.9199667,0.656667555 C14.7821161,0.774677376 14.6518189,0.904107503 14.5385171,1.05066809 L4.2790336,14.4619133 L11.0374896,14.4619133 L17.9753402,5.39419087 Z" id="Fill-4"></path>
                    <path d="M73.4550039,56.9824652 C73.0168443,56.530514 72.5949128,56.1315111 72.1856032,55.7760014 C70.7394961,54.5165893 69.4773079,53.839608 68.3323229,53.4614062 C67.1711097,53.0794224 66.1270997,53 65.1570179,53 C64.2410299,53 63.2294762,53.0775314 62.0935068,53.4538422 C60.9593406,53.832044 59.7025617,54.5033522 58.2528484,55.7646553 C57.8453419,56.122056 57.4216073,56.519168 56.9834477,56.9730101 C55.2380217,58.7505587 52.7857703,59.1098504 51.9725605,59.1760358 L51.0764068,59.1817088 C50.1027188,59.1098504 47.6522705,58.7505587 45.9176633,56.9824652 C45.4758974,56.526732 45.0521628,56.1277291 44.6428532,55.7722194 C43.1985492,54.5165893 41.9435735,53.8414991 40.8021948,53.4651882 C39.6373753,53.0794224 38.5915623,53 37.6178742,53 C36.6820518,53 35.6488606,53.0813134 34.4822381,53.4784253 C33.3931499,53.8509541 32.1850555,54.5071343 30.803861,55.690906 C30.3620951,56.0691078 29.9059042,56.4926938 29.4280758,56.9862472 C29.0205693,57.4060512 28.5319222,57.7558879 28,58.0622314 L28,63.3003266 C29.8283698,62.6819666 31.4151207,61.7062059 32.6556714,60.4241018 C35.1764416,57.8239642 36.4728892,57.8239642 37.7314711,57.8239642 C38.8728499,57.8239642 40.1674944,57.8239642 42.7026896,60.4316658 C45.4326224,63.2171222 48.9198681,63.8581743 50.9159286,64 L52.1330387,63.994327 C53.968621,63.8581743 57.4558667,63.2171222 60.1984214,60.4241018 C62.7191916,57.8239642 64.0156392,57.8239642 65.2525836,57.8239642 C66.402978,57.8239642 67.0346263,57.2840811 69.7591498,60.0714286 C72.4836732,62.858776 75.1842018,58.7524497 73.4550039,56.9824652 Z" id="Fill-1" transform="translate(51.000000, 58.500000) rotate(-270.000000) translate(-51.000000, -58.500000) "></path>
                </g>
            </g>
        </g>
    </g>
</svg>