<?xml version="1.0" encoding="UTF-8"?>
<svg width="83px" height="93px" viewBox="0 0 83 93" version="1.1" xmlns="http://www.w3.org/2000/svg" xmlns:xlink="http://www.w3.org/1999/xlink">
    <!-- Generator: sketchtool 52.5 (67469) - http://www.bohemiancoding.com/sketch -->
    <title>475BC009-A043-40FC-8A8A-23BF352DEBC6</title>
    <desc>Created with sketchtool.</desc>
    <g id="VERSION-3.0" stroke="none" stroke-width="1" fill="none" fill-rule="evenodd">
        <g id="SCTE_DTP-STANDARDS-CATEGORIES" transform="translate(-1203.000000, -1291.000000)" fill="#FFFFFF" stroke="#FFFFFF" stroke-width="2">
            <path d="M1271,1321 C1271.77176,1321 1272.42118,1320.55058 1272.75529,1319.9139 C1272.89961,1319.63925 1273,1319.3412 1273,1319.01037 L1273,1305.99119 C1273,1304.8926 1272.10431,1304 1271,1304 C1269.89569,1304 1269,1304.8926 1269,1305.99119 L1269,1319.01037 C1269,1319.3412 1269.10039,1319.63925 1269.24471,1319.9139 C1269.57882,1320.55058 1270.22824,1321 1271,1321 Z M1254.99922,1321 C1255.77068,1321 1256.41984,1320.55058 1256.75382,1319.9139 C1256.89808,1319.63925 1257,1319.3412 1257,1319.01037 L1257,1305.99119 C1257,1304.8926 1256.1031,1304 1254.99922,1304 C1253.89534,1304 1253,1304.8926 1253,1305.99119 L1253,1319.01037 C1253,1319.39737 1253.14112,1319.73756 1253.33399,1320.04498 C1253.68679,1320.6052 1254.28577,1321 1254.99922,1321 Z M1210.65385,1323.05998 C1215.7334,1308.92509 1228.01716,1301.86071 1240.88207,1296.55399 C1243.86615,1305.99719 1248.41991,1325.25783 1241.35251,1338.56604 C1238.21777,1344.46938 1233.04598,1348.44789 1225.98166,1350.39726 C1224.77634,1350.73162 1223.61561,1350.96781 1222.53175,1351.10278 C1221.45557,1351.23622 1220.69302,1352.21167 1220.82678,1353.28529 C1220.94977,1354.27454 1221.79534,1355 1222.77004,1355 C1222.85152,1355 1222.93147,1354.9954 1223.01449,1354.98466 C1224.28899,1354.82669 1225.63882,1354.55215 1227.02708,1354.16872 C1235.17219,1351.9218 1241.15726,1347.28838 1244.81779,1340.39885 C1253.13817,1324.73329 1246.98398,1302.26102 1243.95071,1293.32548 C1243.77852,1292.81781 1243.40493,1292.40064 1242.9145,1292.17671 C1242.68389,1292.06935 1242.43484,1292.0172 1242.18424,1292.00647 C1242.16425,1292.00647 1242.14581,1292.00187 1242.12889,1292.00033 C1241.87061,1291.99573 1241.61079,1292.03868 1241.36635,1292.1353 C1227.64973,1297.60153 1212.83541,1305.39443 1206.96103,1321.73791 C1203.90316,1330.25013 1204.01231,1343.42644 1210.23722,1351.07978 C1210.39403,1351.27303 1210.58467,1351.4172 1210.7876,1351.53376 C1210.81681,1351.55063 1210.84295,1351.57057 1210.87523,1351.58591 C1211.06895,1351.6856 1211.27957,1351.74695 1211.4948,1351.77609 C1211.53631,1351.78069 1211.57782,1351.78529 1211.61933,1351.78989 C1211.78537,1351.80216 1211.95141,1351.77609 1212.11745,1351.74542 C1212.19585,1351.73008 1212.27272,1351.73008 1212.34806,1351.70554 C1212.57713,1351.63345 1212.79851,1351.52609 1212.9953,1351.36658 C1213.83625,1350.68561 1213.96539,1349.45402 1213.28279,1348.61506 C1208.15405,1342.30988 1207.91883,1330.66884 1210.65385,1323.05998 Z M1283.04003,1324 L1254.03374,1324 C1253.7588,1324 1253.49921,1324.06115 1253.26112,1324.16621 C1253.20736,1325.32967 1253.12135,1326.49314 1253,1327.65661 C1253.30413,1327.85417 1253.64667,1328 1254.03374,1328 L1283.04003,1328 C1284.12139,1328 1285,1327.10466 1285,1326.00078 C1285,1324.8969 1284.12139,1324 1283.04003,1324 Z M1276.09198,1332 C1275.98966,1332.94024 1275.93622,1333.85116 1275.90568,1334.68641 C1275.86597,1335.69768 1275.85223,1336.72284 1275.83849,1337.75417 C1275.77588,1342.81667 1275.7148,1347.59818 1272.47135,1351.13375 C1270.18078,1353.62872 1266.5968,1355.06147 1262.63564,1355.06147 L1262.63106,1355.06147 C1258.6699,1355.06147 1255.08287,1353.63026 1252.78925,1351.13375 C1250.7598,1348.92441 1249.29384,1344.72959 1249.04035,1340.90685 C1248.78228,1341.47038 1248.51046,1342.02928 1248.22185,1342.582 C1247.55453,1343.85264 1246.79865,1345.03065 1246,1346.16543 C1246.7849,1349.02322 1248.08595,1351.80072 1249.9352,1353.81399 C1252.96333,1357.11025 1257.59028,1359 1262.63106,1359 L1262.63717,1359 C1267.67795,1358.99846 1272.30185,1357.1087 1275.32845,1353.81244 C1279.59197,1349.16526 1279.66832,1343.12855 1279.73551,1337.80358 C1279.74773,1336.80775 1279.75994,1335.81965 1279.79812,1334.83772 C1279.83171,1333.94688 1279.87752,1332.98965 1279.99969,1332.03397 C1280.00122,1332.02161 1279.99663,1332.01235 1279.99663,1332 L1276.09198,1332 Z M1262.69265,1362.53692 C1262.10936,1362.53692 1261.53538,1362.49694 1260.95985,1362.45542 C1258.7384,1372.12101 1250.00927,1379.07686 1239.93828,1379.07686 C1229.8285,1379.07686 1221.17849,1372.26865 1218.9074,1362.52154 C1218.66075,1361.46809 1217.60742,1360.80527 1216.53392,1361.05133 C1215.46974,1361.29585 1214.80578,1362.3493 1215.05089,1363.40583 C1217.74083,1374.94303 1227.97471,1383 1239.93828,1383 C1252.11283,1383 1262.65231,1374.41707 1264.99632,1362.59075 C1265.00717,1362.53539 1264.99011,1362.4831 1264.99476,1362.42927 C1264.23773,1362.50001 1263.46829,1362.53692 1262.69265,1362.53692 Z" id="Fill-1"></path>
        </g>
    </g>
</svg>