<?xml version="1.0" encoding="UTF-8"?>
<svg width="14px" height="14px" viewBox="0 0 14 14" version="1.1" xmlns="http://www.w3.org/2000/svg" xmlns:xlink="http://www.w3.org/1999/xlink">
    <!-- Generator: Sketch 52.5 (67469) - http://www.bohemiancoding.com/sketch -->
    <title>unlink</title>
    <desc>Created with Sketch.</desc>
    <g id="Page-1" stroke="none" stroke-width="1" fill="none" fill-rule="evenodd">
        <g id="02-Page-Builder" transform="translate(-450.000000, -145.000000)" fill="#FFFFFF">
            <g id="Group" transform="translate(-7.000000, 0.000000)">
                <g id="unlink" transform="translate(457.000000, 145.000000)">
                    <path d="M13.0258545,0.967527273 C11.7358182,-0.322509091 9.63658182,-0.322 8.34629091,0.967527273 L6.00650909,3.30730909 C5.80770909,3.50610909 5.80770909,3.82836364 6.00650909,4.02716364 C6.20530909,4.22596364 6.52756364,4.22596364 6.72636364,4.02716364 L9.06614545,1.68738182 C9.49658182,1.2572 10.0718545,1.01996364 10.6858182,1.01996364 C11.3000364,1.01996364 11.8753091,1.2572 12.3057455,1.68763636 C12.7361818,2.11807273 12.9734182,2.69334545 12.9734182,3.30756364 C12.9734182,3.92152727 12.7361818,4.4968 12.3057455,4.92723636 L9.24636364,7.98738182 C8.35290909,8.88032727 6.89970909,8.88032727 6.00625455,7.98738182 C5.80745455,7.78858182 5.4852,7.78858182 5.2864,7.98738182 C5.0876,8.18618182 5.0876,8.50869091 5.2864,8.70723636 C5.93141818,9.35225455 6.7788,9.67476364 7.62618182,9.67476364 C8.47356364,9.67476364 9.32094545,9.35225455 9.96596364,8.70723636 L13.0258545,5.64734545 C13.6487273,5.02472727 13.9918545,4.19363636 13.9918545,3.30756364 C13.9918545,2.42123636 13.6487273,1.5904 13.0258545,0.967527273 Z" id="Path"></path>
                    <path d="M6.90632727,10.3269091 L4.92647273,12.3067636 C4.49603636,12.7372 3.92076364,12.9744364 3.30654545,12.9744364 C2.69258182,12.9744364 2.11705455,12.7372 1.68661818,12.3067636 C0.793418182,11.4135636 0.793418182,9.96010909 1.68661818,9.06690909 L4.56654545,6.18698182 C4.99698182,5.7568 5.57225455,5.51956364 6.18647273,5.51956364 C6.80043636,5.51956364 7.37570909,5.7568 7.80614545,6.18698182 C8.00494545,6.38578182 8.3272,6.38578182 8.526,6.18698182 C8.7248,5.98818182 8.7248,5.66592727 8.526,5.46712727 C7.23621818,4.17734545 5.13698182,4.17709091 3.84643636,5.46712727 L0.966509091,8.34730909 C0.343890909,8.96992727 0.000763636364,9.80101818 0.000763636364,10.6870909 C0.000763636364,11.5729091 0.343890909,12.404 0.966763636,13.0266182 C1.58938182,13.6494909 2.42047273,13.9926182 3.30629091,13.9926182 C4.19236364,13.9926182 5.02345455,13.6494909 5.64607273,13.0266182 L7.62592727,11.0467636 C7.82472727,10.8479636 7.82472727,10.5257091 7.62592727,10.3269091 C7.42712727,10.1281091 7.10512727,10.1281091 6.90632727,10.3269091 Z" id="Path"></path>
                </g>
            </g>
        </g>
    </g>
</svg>