<?xml version="1.0" encoding="UTF-8"?>
<svg width="18px" height="17px" viewBox="0 0 18 17" version="1.1" xmlns="http://www.w3.org/2000/svg" xmlns:xlink="http://www.w3.org/1999/xlink">
    <!-- Generator: Sketch 52.5 (67469) - http://www.bohemiancoding.com/sketch -->
    <title>promotion</title>
    <desc>Created with Sketch.</desc>
    <g id="Page-1" stroke="none" stroke-width="1" fill="none" fill-rule="evenodd">
        <g id="Settings_Footer" transform="translate(-35.000000, -238.000000)" fill="#FFFFFF">
            <g id="promotion" transform="translate(35.000000, 238.000000)">
                <path d="M4.8151703,10.8363647 C4.98326112,10.7394104 5.04080198,10.5242157 4.94384766,10.3561249 C4.84675597,10.1881714 4.63169862,10.1304932 4.4636078,10.2274475 C4.29551698,10.3245392 4.23783875,10.5397339 4.33493044,10.7076874 C4.43188477,10.8757782 4.64707948,10.9334564 4.8151703,10.8363647 Z" id="Path"></path>
                <path d="M3.37445068,13.2628326 L5.14489746,16.3295288 C5.52694704,16.9920044 6.38635254,17.2372742 7.06599425,16.8443756 C7.73849489,16.4557343 7.96961974,15.596466 7.58056641,14.9234161 L6.52587891,13.0963898 L7.43925477,12.569046 C7.60734559,12.471817 7.66502381,12.256897 7.56793213,12.0888062 L7.11076356,11.2969666 C7.1652832,11.2863922 7.52371214,11.2160797 13.8445587,9.97613525 C14.6259613,9.93370057 15.0941162,9.07910156 14.6994324,8.39588927 L13.5310364,6.37220763 L14.2776947,5.24130251 C14.3510284,5.13006592 14.355423,4.98710633 14.2888184,4.87174989 L13.5856934,3.65391541 C13.5190888,3.53855897 13.3926086,3.47099305 13.2600861,3.4788208 L11.9075317,3.55998231 L10.6104584,1.31327821 C10.4225922,0.987808219 10.0859985,0.790740984 9.71026611,0.786071777 C9.70573426,0.785934457 9.70133973,0.785934457 9.69680784,0.785934457 C9.33370973,0.785934457 9.00411989,0.966659555 8.80883789,1.2722168 L4.21627809,7.12271116 L1.23060607,8.84646605 C0.0563049141,9.52418517 -0.350463867,11.0306854 0.329864484,12.2081451 C0.951416016,13.2848053 2.26181032,13.7083282 3.37445068,13.2628326 Z M6.97178651,15.275116 C7.16596984,15.6110229 7.05102539,16.0408631 6.71415711,16.2354584 C6.3761902,16.4308777 5.94580078,16.3108521 5.75381468,15.9781036 L3.99600218,12.9331055 L5.21383669,12.2299805 C7.24822998,15.7541199 6.93910216,15.2186737 6.97178651,15.275116 Z M6.17431641,12.4873352 L5.82275391,11.878418 L6.43167112,11.5268555 L6.78323362,12.1357727 L6.17431641,12.4873352 Z M13.0854034,4.19361877 L13.5712738,5.0351715 L13.1380005,5.69132996 L12.3005676,4.24072266 L13.0854034,4.19361877 Z M9.39688109,1.65769959 C9.49122619,1.50334168 9.64091493,1.48741151 9.70161437,1.48905946 C9.76162718,1.48974609 9.9111786,1.50842285 10.0014038,1.66470335 L14.0905151,8.74745177 C14.2237244,8.97802734 14.0618134,9.26792909 13.7947082,9.27452088 C13.7467804,9.27561952 13.7246704,9.28427126 13.6018982,9.30720519 L9.27644347,1.81521605 C9.367218,1.69848633 9.378891,1.68722536 9.39688109,1.65769959 Z M8.80856325,2.41122438 L12.8725433,9.45030213 L6.73915099,10.6533051 L4.87422179,7.42318727 L8.80856325,2.41122438 Z M0.938781738,11.8565826 C0.784423828,11.5894775 0.702850359,11.2862549 0.702850359,10.9794617 C0.702850359,10.352417 1.03985596,9.76849365 1.58216857,9.4553833 L4.32229613,7.87335205 L6.08010863,10.9179382 L3.33998107,12.5001068 C2.50048828,12.9846039 1.42341613,12.6959381 0.938781738,11.8565826 Z" id="Shape" fill-rule="nonzero"></path>
                <path d="M3.72601318,11.0592499 C3.6289215,10.8911591 3.41386414,10.8334808 3.24577332,10.9305725 L2.63685607,11.282135 C2.46903993,11.3790894 2.25357054,11.3212738 2.15661621,11.1534576 C2.05952453,10.9853668 1.84446717,10.9276886 1.67637635,11.0247803 C1.50828553,11.121872 1.45060731,11.3369293 1.54769899,11.5050201 C1.83705138,12.0062714 2.48249816,12.1830139 2.98841857,11.8910522 L3.59733582,11.5394897 C3.76542664,11.4423981 3.82310487,11.227478 3.72601318,11.0592499 Z" id="Path"></path>
                <path d="M17.4774628,1.53794862 L15.5184631,2.62806701 C15.3488617,2.72254943 15.2877502,2.93664551 15.3822326,3.10624696 C15.4764404,3.27571105 15.6903992,3.33709717 15.8604126,3.24247743 L17.8192749,2.152359 C17.9890137,2.05787658 18.0499878,1.8437805 17.9555054,1.67417909 C17.8611603,1.50444032 17.6470642,1.4434662 17.4774628,1.53794862 Z" id="Path"></path>
                <path d="M17.2720184,5.1790924 L15.9136963,4.8151703 C15.7261047,4.76490783 15.5332947,4.87614442 15.4830322,5.06373595 C15.4327698,5.25132752 15.5441437,5.44400023 15.7317352,5.4942627 L17.0901947,5.8581848 C17.2788849,5.90885926 17.4707336,5.7958374 17.5207215,5.60961914 C17.5709839,5.42202757 17.45961,5.22921755 17.2720184,5.1790924 Z" id="Path"></path>
                <path d="M13.8585663,0.260650617 L13.4942322,1.61911013 C13.4439697,1.80670166 13.5552063,1.9993744 13.7427979,2.04977419 C13.9302521,2.0998993 14.1230621,1.98893739 14.1734619,1.8012085 L14.5376587,0.442749023 C14.5879211,0.255157453 14.4766846,0.0623474297 14.289093,0.0120849609 C14.1016388,-0.0381775078 13.9088287,0.073059082 13.8585663,0.260650617 Z" id="Path"></path>
            </g>
        </g>
    </g>
</svg>