<?xml version="1.0" encoding="UTF-8"?>
<svg width="17px" height="16px" viewBox="0 0 17 16" version="1.1" xmlns="http://www.w3.org/2000/svg" xmlns:xlink="http://www.w3.org/1999/xlink">
    <!-- Generator: Sketch 52.5 (67469) - http://www.bohemiancoding.com/sketch -->
    <title>users</title>
    <desc>Created with Sketch.</desc>
    <g id="Page-1" stroke="none" stroke-width="1" fill="none" fill-rule="evenodd">
        <g id="Settings_Footer" transform="translate(-34.000000, -288.000000)" fill="#FFFFFF" fill-rule="nonzero">
            <g id="users" transform="translate(34.000000, 288.000000)">
                <path d="M15.5873,12.29355 L12.8806167,10.94035 C12.6253333,10.8125667 12.4666667,10.5558667 12.4666667,10.2702667 L12.4666667,9.31231667 C12.53155,9.23298333 12.5998333,9.1426 12.6703833,9.04286667 C13.0214333,8.54703333 13.3027833,7.9951 13.50735,7.39981667 C13.9071333,7.2165 14.1666667,6.82125 14.1666667,6.375 L14.1666667,5.24166667 C14.1666667,4.96881667 14.0646667,4.70446667 13.8833333,4.49791667 L13.8833333,2.99086667 C13.8992,2.83503333 13.9615333,1.9074 13.2906,1.14211667 C12.7086333,0.478266667 11.7642833,0.141666667 10.4833333,0.141666667 C9.20238333,0.141666667 8.25803333,0.478266667 7.67606667,1.14183333 C7.26948333,1.60565 7.13263333,2.12811667 7.09126667,2.50325 C6.60563333,2.25221667 6.0333,2.125 5.38333333,2.125 C2.43978333,2.125 2.26836667,4.63391667 2.26666667,4.675 L2.26666667,5.97238333 C2.08306667,6.17241667 1.98333333,6.40333333 1.98333333,6.63255 L1.98333333,7.61118333 C1.98333333,7.9169 2.12018333,8.20193333 2.35478333,8.3946 C2.58853333,9.27576667 3.16341667,9.9416 3.38725,10.17535 L3.38725,10.9525333 C3.38725,11.1755167 3.26598333,11.3800833 3.05546667,11.4951167 L1.17045,12.6774667 C0.448516667,13.0713 0,13.82695 0,14.6491833 L0,15.725 L3.96666667,15.725 L4.53333333,15.725 L17,15.725 L17,14.5794833 C17,13.6053833 16.45855,12.7293167 15.5873,12.29355 Z M3.96666667,14.5242333 L3.96666667,15.1583333 L0.566666667,15.1583333 L0.566666667,14.6491833 C0.566666667,14.03435 0.902133333,13.4693833 1.45661667,13.1665 L3.34135,11.98415 C3.71903333,11.7781667 3.95363333,11.3832 3.95363333,10.9525333 L3.95363333,9.93508333 L3.86353333,9.85093333 C3.85616667,9.84413333 3.10335,9.13296667 2.88093333,8.16368333 L2.85515,8.05148333 L2.75825,7.98915 C2.62791667,7.90471667 2.55,7.76333333 2.55,7.61118333 L2.55,6.63255 C2.55,6.53055 2.61941667,6.40928333 2.74011667,6.29991667 L2.83333333,6.21576667 L2.83276667,4.69143333 C2.83786667,4.61011667 2.98548333,2.69166667 5.38333333,2.69166667 C6.06135,2.69166667 6.63226667,2.84835 7.08333333,3.15746667 L7.08333333,4.49791667 C6.902,4.70446667 6.8,4.96881667 6.8,5.24166667 L6.8,6.375 C6.8,6.46113333 6.80991667,6.54585 6.82861667,6.62801667 C6.83626667,6.66088333 6.85156667,6.69091667 6.86205,6.72265 C6.87763333,6.77025 6.8901,6.81926667 6.91191667,6.86431667 C6.9122,6.86488333 6.91248333,6.86516667 6.91276667,6.86573333 C6.9853,7.01533333 7.09098333,7.14906667 7.22415,7.25588333 C7.22556667,7.26126667 7.22726667,7.26608333 7.22868333,7.27118333 C7.24568333,7.33606667 7.26353333,7.40066667 7.2828,7.46385 L7.30575,7.5378 C7.30971667,7.55083333 7.31453333,7.56415 7.31878333,7.57718333 C7.3287,7.60778333 7.33833333,7.6381 7.34853333,7.66813333 C7.36553333,7.71771667 7.38338333,7.769 7.40406667,7.82481667 C7.41285,7.84805 7.42248333,7.86901667 7.43155,7.89196667 C7.45478333,7.95118333 7.47801667,8.00841667 7.50238333,8.06508333 C7.50833333,8.07868333 7.51343333,8.09341667 7.51938333,8.10673333 L7.53525,8.14243333 C7.54261667,8.15886667 7.55026667,8.1736 7.55763333,8.18975 C7.5854,8.25038333 7.6126,8.30903333 7.64093333,8.3657 C7.64546667,8.37476667 7.64971667,8.38468333 7.65425,8.39375 C7.6721,8.42916667 7.68995,8.4626 7.7078,8.4966 C7.7384,8.55496667 7.76843333,8.60993333 7.79846667,8.6632 C7.8132,8.68926667 7.82765,8.71476667 7.8421,8.73941667 C7.8829,8.80911667 7.92171667,8.87315 7.9594,8.93265 C7.96761667,8.9454 7.97555,8.95871667 7.98348333,8.9709 C8.05205,9.07715 8.11155,9.16328333 8.16085,9.23043333 C8.17388333,9.24828333 8.18521667,9.26358333 8.19626667,9.2786 C8.2025,9.28681667 8.211,9.29871667 8.21638333,9.30608333 L8.21638333,10.2436333 C8.21638333,10.5179 8.06678333,10.7695 7.82623333,10.9009667 L7.07653333,11.3098167 L6.94591667,11.2982 L6.89265,11.4101167 L5.29861667,12.2796667 C4.47695,12.7284667 3.96666667,13.5881 3.96666667,14.5242333 Z M16.4333333,15.1583333 L4.53333333,15.1583333 L4.53333333,14.5242333 C4.53333333,13.7957833 4.93056667,13.1262667 5.57005,12.7777667 L8.09766667,11.3990667 C8.52068333,11.16815 8.78333333,10.7253 8.78333333,10.2439167 L8.78333333,9.10548333 L8.78333333,9.1052 L8.72836667,9.03946667 L8.7176,9.02671667 C8.71703333,9.02586667 8.69946667,9.00461667 8.67085,8.96721667 C8.66915,8.96495 8.66745,8.96268333 8.66546667,8.96041667 C8.65045,8.94086667 8.63288333,8.91735 8.61276667,8.8893 C8.61248333,8.88873333 8.6122,8.88845 8.61191667,8.88788333 C8.5697,8.82923333 8.51671667,8.75301667 8.45778333,8.66121667 C8.45636667,8.65923333 8.45523333,8.65696667 8.45381667,8.65498333 C8.42605,8.61163333 8.39658333,8.56431667 8.36655,8.51416667 C8.36428333,8.51048333 8.36201667,8.5068 8.35975,8.50283333 C8.29571667,8.39545 8.22771667,8.2739 8.16,8.13931667 C8.16,8.13931667 8.15971667,8.13903333 8.15971667,8.13875 C8.12373333,8.0665 8.08775,7.99056667 8.05261667,7.91151667 C8.0478,7.90046667 8.0427,7.8897 8.03788333,7.87865 C8.0223,7.84323333 8.00671667,7.80611667 7.99085,7.76786667 C7.98518333,7.75398333 7.97951667,7.73953333 7.97385,7.72536667 C7.95911667,7.68825 7.9441,7.65085 7.92823333,7.60806667 C7.89933333,7.531 7.87213333,7.45053333 7.84606667,7.36751667 L7.83048333,7.31708333 C7.82878333,7.31141667 7.8268,7.30575 7.8251,7.2998 C7.79846667,7.21026667 7.77296667,7.11875 7.75143333,7.02468333 L7.72565,6.91248333 L7.62903333,6.85015 C7.4647,6.74418333 7.36666667,6.56653333 7.36666667,6.375 L7.36666667,5.24166667 C7.36666667,5.08271667 7.4341,4.93453333 7.5565,4.82375 L7.65,4.7396 L7.65,2.975 L7.65,2.8747 L7.64235,2.86875 C7.63271667,2.66418333 7.6449,2.03716667 8.1022,1.51555 C8.57168333,0.979766667 9.37295,0.708333333 10.4833333,0.708333333 C11.58975,0.708333333 12.3893167,0.977783333 12.8593667,1.5096 C13.4110167,2.13321667 13.3197833,2.93108333 13.3192167,2.93788333 L13.3166667,4.7396 L13.4101667,4.82403333 C13.5325667,4.93453333 13.6,5.08271667 13.6,5.24166667 L13.6,6.375 C13.6,6.62235 13.4379333,6.83881667 13.1971,6.91305 L13.056,6.9564 L13.0106667,7.09665 C12.8211167,7.68626667 12.5511,8.23083333 12.2077,8.71533333 C12.12355,8.83461667 12.0416667,8.9403 11.97055,9.02105 L11.9,9.10151667 L11.9,10.2702667 C11.9,10.7717667 12.1785167,11.22255 12.6270333,11.44695 L15.3337167,12.80015 C16.0120167,13.1393 16.4333333,13.821 16.4333333,14.5794833 L16.4333333,15.1583333 Z" id="Shape"></path>
            </g>
        </g>
    </g>
</svg>