<?xml version="1.0" encoding="UTF-8"?>
<svg width="82px" height="82px" viewBox="0 0 82 82" version="1.1" xmlns="http://www.w3.org/2000/svg" xmlns:xlink="http://www.w3.org/1999/xlink">
    <!-- Generator: sketchtool 52.5 (67469) - http://www.bohemiancoding.com/sketch -->
    <title>75B208D7-733A-4181-8BC9-8DC98A374D6B</title>
    <desc>Created with sketchtool.</desc>
    <g id="VERSION-3.0" stroke="none" stroke-width="1" fill="none" fill-rule="evenodd">
        <g id="SCTE_DTP-STANDARDS-CATEGORIES" transform="translate(-1198.000000, -1760.000000)" fill="#FFFFFF" stroke="#FFFFFF">
            <g id="Group-11" transform="translate(-13.000000, 1680.000000)">
                <path d="M1221.9375,119.333333 C1221.9375,118.411667 1221.1955,117.666667 1220.28125,117.666667 L1215.3125,117.666667 L1215.3125,87.6666667 C1215.3125,85.8283333 1216.79816,84.3333333 1218.625,84.3333333 L1248.4375,84.3333333 L1248.4375,95.6566667 C1248.4375,96.8283333 1249.03044,97.89 1250.02419,98.495 C1251.02953,99.1083333 1252.2535,99.1466667 1253.30356,98.5933333 C1254.43313,97.995 1255.64716,97.6666667 1256.71875,97.6666667 C1259.45819,97.6666667 1261.6875,99.91 1261.6875,102.666667 C1261.6875,105.423333 1259.45819,107.666667 1256.71875,107.666667 C1255.64716,107.666667 1254.43313,107.338333 1253.30191,106.738333 C1252.25516,106.188333 1251.02953,106.226667 1250.02419,106.838333 C1249.03044,107.443333 1248.4375,108.505 1248.4375,109.676667 L1248.4375,119.333333 C1248.4375,120.255 1249.1795,121 1250.09375,121 C1251.008,121 1251.75,120.255 1251.75,119.333333 L1251.75,109.693333 C1253.34662,110.536667 1255.12047,111 1256.71875,111 C1261.28503,111 1265,107.261667 1265,102.666667 C1265,98.0716667 1261.28503,94.3333333 1256.71875,94.3333333 C1255.12047,94.3333333 1253.35988,94.7966667 1251.75,95.6566667 L1251.75,82.6666667 C1251.75,81.745 1251.008,81 1250.09375,81 L1218.625,81 C1214.97131,81 1212,83.99 1212,87.6666667 L1212,119.333333 C1212,120.255 1212.742,121 1213.65625,121 L1220.28125,121 C1221.1955,121 1221.9375,120.255 1221.9375,119.333333 Z M1289,153.666667 C1289,155.505 1287.49432,157 1285.64286,157 L1255.42857,157 L1255.42857,149.01 C1255.42857,147.838333 1254.82764,146.776667 1253.8205,146.171667 C1252.80496,145.558333 1251.56282,145.521667 1250.49693,146.073333 C1249.35214,146.671667 1248.12175,147 1247.03571,147 C1244.25936,147 1242,144.756667 1242,142 C1242,139.243333 1244.25936,137 1247.03571,137 C1248.12175,137 1249.35214,137.328333 1250.49861,137.928333 C1251.56114,138.478333 1252.80161,138.44 1253.8205,137.828333 C1254.82764,137.223333 1255.42857,136.161667 1255.42857,134.99 L1255.42857,127 L1263.80464,127 C1262.95529,128.608333 1262.48864,130.393333 1262.48864,132 C1262.48864,136.595 1266.25368,140.333333 1270.8815,140.333333 C1275.50932,140.333333 1279.27436,136.595 1279.27436,132 C1279.27436,130.393333 1278.80771,128.623333 1277.94157,127 L1289,127 L1289,153.666667 Z M1252,158 L1222.3,158 C1220.48005,158 1219,156.482 1219,154.615385 L1219,127.538462 L1226.9101,127.538462 C1228.0717,127.538462 1229.12275,126.932615 1229.7217,125.915538 C1230.32725,124.89 1230.3619,123.637692 1229.81575,122.568154 C1229.23495,121.429231 1228.9,120.156615 1228.9,119.076923 C1228.9,116.277846 1231.1209,114 1233.85,114 C1236.5791,114 1238.8,116.277846 1238.8,119.076923 C1238.8,120.156615 1238.46505,121.429231 1237.88425,122.568154 C1237.3381,123.637692 1237.37275,124.89 1237.9783,125.915538 C1238.57725,126.932615 1239.6283,127.538462 1240.7899,127.538462 L1252,127.538462 L1252,135.634462 C1250.4094,134.778154 1248.64225,134.307692 1247.05,134.307692 C1242.50095,134.307692 1238.8,138.103538 1238.8,142.769231 C1238.8,147.434923 1242.50095,151.230769 1247.05,151.230769 C1248.64225,151.230769 1250.3962,150.760308 1252,149.887077 L1252,158 Z M1285.3913,88 L1257.30435,88 C1256.39235,88 1255.65217,88.7416136 1255.65217,89.6590909 C1255.65217,90.5765682 1256.39235,91.3181818 1257.30435,91.3181818 L1285.3913,91.3181818 C1287.21365,91.3181818 1288.69565,92.8063864 1288.69565,94.6363636 L1288.69565,124.5 L1277.81113,124.5 C1276.648,124.5 1275.59557,125.093955 1274.99583,126.091068 C1274.38948,127.096477 1274.35478,128.324205 1274.90165,129.37275 C1275.48322,130.489318 1275.81861,131.736955 1275.81861,132.795455 C1275.81861,135.539591 1273.59478,137.772727 1270.86209,137.772727 C1268.12939,137.772727 1265.90557,135.539591 1265.90557,132.795455 C1265.90557,131.736955 1266.24096,130.489318 1266.82252,129.37275 C1267.36939,128.324205 1267.3347,127.096477 1266.72835,126.091068 C1266.12861,125.093955 1265.07617,124.5 1263.91304,124.5 L1241.13948,124.5 C1241.97548,122.898977 1242.43478,121.122091 1242.43478,119.522727 C1242.43478,114.948614 1238.72896,111.227273 1234.17391,111.227273 C1229.61887,111.227273 1225.91304,114.948614 1225.91304,119.522727 C1225.91304,121.122091 1226.37235,122.884045 1227.22487,124.5 L1217.65217,124.5 C1216.74017,124.5 1216,125.241614 1216,126.159091 L1216,154.363636 C1216,158.023591 1218.964,161 1222.6087,161 L1254,161 L1285.3913,161 C1289.036,161 1292,158.023591 1292,154.363636 L1292,126.159091 L1292,94.6363636 C1292,90.9764091 1289.036,88 1285.3913,88 Z" id="Fill-1"></path>
            </g>
        </g>
    </g>
</svg>