<?xml version="1.0" encoding="UTF-8"?>
<svg width="19px" height="18px" viewBox="0 0 19 18" version="1.1" xmlns="http://www.w3.org/2000/svg" xmlns:xlink="http://www.w3.org/1999/xlink">
    <!-- Generator: Sketch 52.5 (67469) - http://www.bohemiancoding.com/sketch -->
    <title>icon</title>
    <desc>Created with Sketch.</desc>
    <g id="Page-1" stroke="none" stroke-width="1" fill="none" fill-rule="evenodd">
        <g id="Settings_Footer" transform="translate(-34.000000, -191.000000)" fill="#FFFFFF" fill-rule="nonzero" stroke="#323B52" stroke-width="0.5">
            <g id="icon" transform="translate(35.000000, 191.000000)">
                <path d="M16.0249655,0.268758621 L1.38475862,0.268758621 C0.619448276,0.268758621 0,0.90062069 0,1.67524138 L0,15.7363448 C0,16.5122069 0.619448276,17.1403448 1.38475862,17.1403448 L16.0249655,17.1403448 C16.7884138,17.1403448 17.4084828,16.5122069 17.4084828,15.7363448 L17.4084828,1.67524138 C17.4091034,0.90062069 16.7890345,0.268758621 16.0249655,0.268758621 Z M2.2617931,1.27862069 L15.1491724,1.27862069 C15.8213793,1.27862069 16.3675862,1.83413793 16.3675862,2.51627586 L16.3675862,5.30068966 L1.04275862,5.30068966 L1.04275862,2.51627586 C1.04275862,1.83351724 1.58648276,1.27862069 2.2617931,1.27862069 Z M6.00082759,6.70096552 L16.3675862,6.70096552 L16.3675862,10.413931 L6.00082759,10.413931 L6.00082759,6.70096552 Z M1.04275862,14.8934483 L1.04275862,6.70096552 L4.6502069,6.70096552 L4.6502069,16.131104 L2.2617931,16.1311034 C1.58648276,16.1317241 1.04275862,15.5774483 1.04275862,14.8934483 Z M15.1491724,16.1317241 L6.00082759,16.1317241 L6.00082759,11.8135862 L16.3675862,11.8135862 L16.3675862,14.894069 C16.3675862,15.5774483 15.8213793,16.1317241 15.1491724,16.1317241 Z" id="Shape"></path>
            </g>
        </g>
    </g>
</svg>