<?xml version="1.0" encoding="UTF-8"?>
<svg width="18px" height="18px" viewBox="0 0 18 18" version="1.1" xmlns="http://www.w3.org/2000/svg" xmlns:xlink="http://www.w3.org/1999/xlink">
    <!-- Generator: Sketch 52.5 (67469) - http://www.bohemiancoding.com/sketch -->
    <title>settings</title>
    <desc>Created with Sketch.</desc>
    <g id="Page-1" stroke="none" stroke-width="1" fill="none" fill-rule="evenodd">
        <g id="02-Page-Builder" transform="translate(-1753.000000, -142.000000)" fill="#FFFFFF" fill-rule="nonzero" stroke="#323B52" stroke-width="0.3">
            <g id="Group" transform="translate(-7.000000, 0.000000)">
                <g id="Group-3" transform="translate(1752.000000, 134.000000)">
                    <g id="settings" transform="translate(9.000000, 9.000000)">
                        <path d="M15.1716075,6.3165261 L14.0492693,6.12612944 C13.9323591,5.74867641 13.7820459,5.38458455 13.5983299,5.03719415 L14.2597077,4.11193319 C14.5402923,3.71777871 14.4968685,3.17999165 14.1528184,2.83928184 L13.1574113,1.84387474 C12.9703549,1.65681837 12.7231733,1.55326931 12.4592902,1.55326931 C12.2521921,1.55326931 12.0551148,1.61673486 11.8881002,1.73698539 L10.959499,2.39836326 C10.5987474,2.2079666 10.2212944,2.05097286 9.83048017,1.93406263 L9.6434238,0.825085595 C9.56325678,0.3474238 9.15240084,3.34029228e-05 8.66805846,3.34029228e-05 L7.26179541,3.34029228e-05 C6.77745303,3.34029228e-05 6.36659708,0.3474238 6.28643006,0.825085595 L6.09269311,1.96078497 C5.71858038,2.0776952 5.35448852,2.23134864 5.00709812,2.41840501 L4.08851775,1.75702714 C3.92150313,1.63677662 3.72108559,1.57331106 3.51398747,1.57331106 C3.25010438,1.57331106 2.99958246,1.67686013 2.81586639,1.86391649 L1.817119,2.85932359 C1.47640919,3.2000334 1.42964509,3.73782046 1.71022965,4.13197495 L2.3782881,5.07059708 C2.19457203,5.42132777 2.04759916,5.78541962 1.93402923,6.16287265 L0.825052192,6.34992902 C0.347390397,6.43009603 -2.84217094e-14,6.84095198 -2.84217094e-14,7.32529436 L-2.84217094e-14,8.73155741 C-2.84217094e-14,9.21589979 0.347390397,9.62675574 0.825052192,9.70692276 L1.96075157,9.90065971 C2.0776618,10.2747724 2.23131524,10.6388643 2.41837161,10.9862547 L1.76033403,11.9014948 C1.47974948,12.2956493 1.52317328,12.8334363 1.86722338,13.1741461 L2.86263048,14.1695532 C3.04968685,14.3566096 3.29686848,14.4601587 3.56075157,14.4601587 C3.76784969,14.4601587 3.96492693,14.3966931 4.13194154,14.2764426 L5.07056367,13.6083841 C5.40793319,13.7854196 5.76200418,13.9290522 6.12609603,14.0426221 L6.3131524,15.1649603 C6.39331942,15.6426221 6.80417537,15.9900125 7.28851775,15.9900125 L8.69812109,15.9900125 C9.18246347,15.9900125 9.59331942,15.6426221 9.67348643,15.1649603 L9.86388309,14.0426221 C10.2413361,13.9257119 10.605428,13.7753987 10.9528184,13.5916827 L11.8780793,14.2530605 C12.0450939,14.3733111 12.2455115,14.4367766 12.4526096,14.4367766 C12.7164927,14.4367766 12.9636743,14.3332276 13.1507307,14.1461712 L14.1461378,13.1507641 C14.4868476,12.8100543 14.5336117,12.2722672 14.2530271,11.8781127 L13.5916493,10.9495115 C13.7753653,10.5987808 13.9290188,10.2346889 14.0425887,9.8605762 L15.1649269,9.67351983 C15.6425887,9.59335282 15.9899791,9.18249687 15.9899791,8.69815449 L15.9899791,7.29189144 C15.9966597,6.80754906 15.6492693,6.39669311 15.1716075,6.3165261 Z M15.0947808,8.69815449 C15.0947808,8.74157829 15.0647182,8.7783215 15.0212944,8.78500209 L13.6183716,9.01882255 C13.4413361,9.04888518 13.3010438,9.17915658 13.25762,9.34951148 C13.1306889,9.84053445 12.936952,10.3115157 12.6764092,10.7490939 C12.5862213,10.9027474 12.5929019,11.0931441 12.6964509,11.2401169 L13.5215031,12.4025386 C13.5448852,12.4359415 13.5415449,12.4860459 13.5114823,12.5161086 L12.5160752,13.5115157 C12.4926931,13.5348977 12.4693111,13.538238 12.4526096,13.538238 C12.4325678,13.538238 12.4158664,13.5315574 12.4025052,13.5215365 L11.2434238,12.6964843 C11.0997912,12.5929353 10.9060543,12.5862547 10.7524008,12.6764426 C10.3148225,12.9369854 9.84384134,13.1307223 9.35281837,13.2576534 C9.17912317,13.3010772 9.04885177,13.4447098 9.02212944,13.618405 L8.78496868,15.0213278 C8.7782881,15.0647516 8.74154489,15.0948142 8.69812109,15.0948142 L7.29185804,15.0948142 C7.24843424,15.0948142 7.21169102,15.0647516 7.20501044,15.0213278 L6.97118998,13.618405 C6.94112735,13.4413695 6.81085595,13.3010772 6.64050104,13.2576534 C6.16283925,13.1340626 5.70187891,12.943666 5.27098121,12.6964843 C5.20083507,12.6564008 5.12066806,12.6363591 5.04384134,12.6363591 C4.95365344,12.6363591 4.86012526,12.6630814 4.78329854,12.7198664 L3.61419624,13.5515992 C3.59749478,13.56162 3.58079332,13.5683006 3.56409186,13.5683006 C3.55073069,13.5683006 3.52400835,13.5649603 3.5006263,13.5415783 L2.50521921,12.5461712 C2.47515658,12.5161086 2.47181628,12.4693445 2.49519833,12.4326013 L3.31691023,11.2802004 C3.42045929,11.1332276 3.42713987,10.9394906 3.33695198,10.7858372 C3.07640919,10.3515992 2.87599165,9.88061795 2.74906054,9.38959499 C2.70229645,9.21924008 2.56200418,9.08896868 2.38830898,9.05890605 L0.975365344,8.81840501 C0.931941545,8.81172443 0.901878914,8.77498121 0.901878914,8.73155741 L0.901878914,7.32529436 C0.901878914,7.28187056 0.931941545,7.24512735 0.975365344,7.23844676 L2.36826722,7.0046263 C2.54530271,6.97456367 2.68893528,6.84429228 2.73235908,6.67059708 C2.8559499,6.17957411 3.04634656,5.70525261 3.30354906,5.26767432 C3.39373695,5.11402088 3.38371608,4.92362422 3.28016701,4.77999165 L2.44843424,3.61088935 C2.42505219,3.57748643 2.42839248,3.52738205 2.45845511,3.49731942 L3.45386221,2.50191232 C3.47724426,2.47853027 3.5006263,2.47518998 3.51732777,2.47518998 C3.53736952,2.47518998 3.55407098,2.48187056 3.56743215,2.49189144 L4.71983299,3.31360334 C4.86680585,3.4171524 5.0605428,3.42383299 5.21419624,3.33364509 C5.64843424,3.0731023 6.11941545,2.87268476 6.61043841,2.74575365 C6.78079332,2.69898956 6.91106472,2.55869729 6.94112735,2.38500209 L7.18162839,0.972058455 C7.18830898,0.928634656 7.22505219,0.898572025 7.26847599,0.898572025 L8.67473904,0.898572025 C8.71816284,0.898572025 8.75490605,0.928634656 8.76158664,0.972058455 L8.9954071,2.36496033 C9.02546973,2.54199582 9.15574113,2.68562839 9.32943633,2.72905219 C9.83382046,2.8559833 10.3148225,3.05306054 10.7624217,3.31694363 C10.9160752,3.40713152 11.1064718,3.40045094 11.2534447,3.29690188 L12.4058455,2.46850939 C12.422547,2.45848852 12.4392484,2.45180793 12.4559499,2.45180793 C12.4693111,2.45180793 12.4960334,2.45514823 12.5194154,2.47853027 L13.5148225,3.47393737 C13.5448852,3.504 13.5482255,3.55076409 13.5248434,3.58750731 L12.6997912,4.74658873 C12.5962422,4.89022129 12.5895616,5.08395825 12.6797495,5.23761169 C12.9402923,5.67518998 13.1340292,6.14617119 13.2609603,6.63719415 C13.3043841,6.81088935 13.4480167,6.94116075 13.6217119,6.96788309 L15.0246347,7.20504384 C15.0680585,7.21172443 15.0981211,7.24846764 15.0981211,7.29189144 L15.0981211,8.69815449 L15.0947808,8.69815449 Z" id="Shape"></path>
                        <path d="M7.99665971,4.5428309 C6.09269311,4.5428309 4.54613779,6.08938622 4.54613779,7.99335282 C4.54613779,9.89731942 6.09269311,11.4438747 7.99665971,11.4438747 C9.9006263,11.4438747 11.4471816,9.89731942 11.4471816,7.99335282 C11.4471816,6.08938622 9.9006263,4.5428309 7.99665971,4.5428309 Z M7.99665971,10.5419958 C6.59039666,10.5419958 5.4480167,9.39961587 5.4480167,7.99335282 C5.4480167,6.58708977 6.59039666,5.44470981 7.99665971,5.44470981 C9.40292276,5.44470981 10.5453027,6.58708977 10.5453027,7.99335282 C10.5453027,9.39961587 9.40292276,10.5419958 7.99665971,10.5419958 Z" id="Shape"></path>
                    </g>
                </g>
            </g>
        </g>
    </g>
</svg>