<?xml version="1.0" encoding="UTF-8"?>
<svg width="23px" height="18px" viewBox="0 0 23 18" version="1.1" xmlns="http://www.w3.org/2000/svg" xmlns:xlink="http://www.w3.org/1999/xlink">
    <!-- Generator: Sketch 52.5 (67469) - http://www.bohemiancoding.com/sketch -->
    <title>Shape</title>
    <desc>Created with Sketch.</desc>
    <g id="Page-1" stroke="none" stroke-width="1" fill="none" fill-rule="evenodd">
        <g id="02-Page-Builder" transform="translate(-1832.000000, -362.000000)" fill="#54585A" fill-rule="nonzero">
            <g id="Group" transform="translate(-7.000000, 0.000000)">
                <g transform="translate(1825.000000, 216.000000)" id="Group-2">
                    <g transform="translate(0.000000, 130.000000)">
                        <path d="M34.84375,16 L16.15625,16 C14.9674375,16 14,16.9674375 14,18.15625 L14,27.5 C14,28.6888125 14.9674375,29.65625 16.15625,29.65625 L34.84375,29.65625 C36.0325625,29.65625 37,28.6888125 37,27.5 L37,18.15625 C37,16.9674375 36.0325625,16 34.84375,16 Z M35.5625,27.5 C35.5625,27.8960313 35.2405,28.21875 34.84375,28.21875 L16.15625,28.21875 C15.7595,28.21875 15.4375,27.8960313 15.4375,27.5 L15.4375,18.15625 C15.4375,17.7602187 15.7595,17.4375 16.15625,17.4375 L34.84375,17.4375 C35.2405,17.4375 35.5625,17.7602187 35.5625,18.15625 L35.5625,27.5 Z M35.921875,31.09375 L28.375,31.09375 C28.375,31.4905 28.0537188,31.8125 27.65625,31.8125 L23.34375,31.8125 C22.9462812,31.8125 22.625,31.4905 22.625,31.09375 L15.078125,31.09375 C14.483,31.09375 14,31.57675 14,32.171875 C14,32.767 14.483,33.25 15.078125,33.25 L35.921875,33.25 C36.517,33.25 37,32.767 37,32.171875 C37,31.57675 36.517,31.09375 35.921875,31.09375 Z" id="Shape"></path>
                    </g>
                </g>
            </g>
        </g>
    </g>
</svg>