<?xml version="1.0" encoding="UTF-8"?>
<svg width="16px" height="15px" viewBox="0 0 16 15" version="1.1" xmlns="http://www.w3.org/2000/svg" xmlns:xlink="http://www.w3.org/1999/xlink">
    <!-- Generator: Sketch 52.5 (67469) - http://www.bohemiancoding.com/sketch -->
    <title>search icon copy 3</title>
    <desc>Created with Sketch.</desc>
    <g id="Page-1" stroke="none" stroke-width="1" fill="none" fill-rule="evenodd">
        <g id="02-Page-Builder" transform="translate(-367.000000, -74.000000)" fill="#9CABB8">
            <g id="Slide-out-add-block-Copy-2">
                <g id="Search" transform="translate(41.000000, 67.000000)">
                    <path d="M340.795916,19.0086842 C340.784969,18.9984211 340.774021,18.9897368 340.763916,18.9810526 C339.11339,17.6365789 337.970653,16.6592105 337.399705,16.1634211 C337.328969,16.1160526 337.265811,16.0607895 337.20939,15.9984211 C337.068758,15.8389474 336.98539,15.6352632 336.98539,15.4118421 C336.98539,15.3723684 336.987916,15.3336842 336.992969,15.295 C337.003916,15.2168421 337.024126,15.1418421 337.054442,15.0707895 C337.077179,15.0171053 337.106653,14.965 337.140337,14.9160526 C337.5176,14.1960526 337.732337,13.3884211 337.739074,12.5326316 C337.759284,9.49631579 335.1496,7.02052632 331.906653,7.00157895 C331.894021,7 331.880547,7 331.868758,7 C328.644337,7.00157895 326.020337,9.43789474 326.000126,12.4615789 C325.979074,15.4978947 328.590442,17.9744737 331.831705,17.9934211 L331.8696,17.9934211 C332.801811,17.9934211 333.684337,17.7889474 334.467495,17.425 C334.488547,17.4139474 334.508758,17.4044737 334.530653,17.3957895 C334.643495,17.3468421 334.767284,17.3176316 334.897811,17.3128947 C334.912969,17.3113158 334.927284,17.3113158 334.940758,17.3113158 C335.17739,17.3113158 335.394653,17.3894737 335.563074,17.5189474 C335.616969,17.5607895 335.665811,17.6065789 335.708758,17.6571053 C336.254442,18.1742105 337.391284,19.2778947 338.834653,20.8165789 C338.844758,20.8276316 338.856547,20.8402632 338.869179,20.8513158 C339.376126,21.3486842 340.256126,21.2989474 340.778232,20.8031579 C341.301179,20.3057895 341.295284,19.45 340.795916,19.0086842 L340.795916,19.0086842 Z M334.950863,15.4023684 C334.475074,15.8444737 333.910021,16.1728947 333.2936,16.3702632 C332.842232,16.5163158 332.36139,16.5913158 331.8696,16.5913158 L331.840969,16.5913158 C329.430863,16.5778947 327.48139,14.7289474 327.496547,12.4710526 C327.511705,10.2281579 329.473811,8.40210526 331.868758,8.40210526 L331.898232,8.40210526 C333.06539,8.40921053 334.160969,8.84184211 334.981179,9.62026316 C335.80139,10.3986842 336.24939,11.4297368 336.241811,12.5231579 C336.238442,13.0078947 336.146653,13.4776316 335.971495,13.9197368 C335.755074,14.4707895 335.409811,14.9760526 334.950863,15.4023684 L334.950863,15.4023684 Z" id="search-icon-copy-3"></path>
                </g>
            </g>
        </g>
    </g>
</svg>