<?xml version="1.0" encoding="UTF-8"?>
<svg width="23px" height="23px" viewBox="0 0 23 23" version="1.1" xmlns="http://www.w3.org/2000/svg" xmlns:xlink="http://www.w3.org/1999/xlink">
    <!-- Generator: Sketch 52.5 (67469) - http://www.bohemiancoding.com/sketch -->
    <title>layout</title>
    <desc>Created with Sketch.</desc>
    <g id="Page-1" stroke="none" stroke-width="1" fill="none" fill-rule="evenodd">
        <g id="02-Page-Builder" transform="translate(-1832.000000, -296.000000)" fill="#54585A">
            <g id="Group" transform="translate(-7.000000, 0.000000)">
                <g transform="translate(1825.000000, 216.000000)" id="screen">
                    <g transform="translate(0.000000, 66.000000)">
                        <g id="layout" transform="translate(14.000000, 14.000000)">
                            <path d="M22.0738457,0 L0.926154297,0 C0.414628906,0 0,0.414628906 0,0.926154297 L0,22.0738008 C0,22.5853711 0.414628906,23 0.926154297,23 L22.0738008,23 C22.5853711,23 23,22.5853711 23,22.0738457 L23,0.926154297 C23,0.414628906 22.5853711,0 22.0738457,0 Z M21.1476465,21.1476465 L1.85235352,21.1476465 L1.85235352,1.85235352 L21.1476465,1.85235352 L21.1476465,21.1476465 Z" id="Shape" fill-rule="nonzero"></path>
                            <rect id="Rectangle" x="0.926154297" y="7.77988477" width="21.1785078" height="1.85235352"></rect>
                            <rect id="Rectangle" x="13.398668" y="8.70603906" width="1.85235352" height="13.398668"></rect>
                            <rect id="Rectangle" x="0.926154297" y="14.2939609" width="13.398668" height="1.85235352"></rect>
                        </g>
                    </g>
                </g>
            </g>
        </g>
    </g>
</svg>