<?xml version="1.0" encoding="UTF-8"?>
<svg width="105px" height="70px" viewBox="0 0 105 70" version="1.1" xmlns="http://www.w3.org/2000/svg" xmlns:xlink="http://www.w3.org/1999/xlink">
    <!-- Generator: sketchtool 52.5 (67469) - http://www.bohemiancoding.com/sketch -->
    <title>05CC8F6C-1CD2-452A-8A46-3ED1AED00826</title>
    <desc>Created with sketchtool.</desc>
    <g id="VERSION-3.0" stroke="none" stroke-width="1" fill="none" fill-rule="evenodd">
        <g id="SCTE_DTP-STANDARDS-CATEGORIES" transform="translate(-513.000000, -1308.000000)" fill="#FFFFFF">
            <g id="Group-6" transform="translate(513.000000, 1308.000000)">
                <path d="M94.8,62 C93.5834,62 92.6,61.0101789 92.6,59.7856352 L92.6,6.6430944 C92.6,5.42076503 91.6144,4.4287296 90.4,4.4287296 L15.6,4.4287296 C14.3856,4.4287296 13.4,5.42076503 13.4,6.6430944 L13.4,59.7856352 C13.4,61.0101789 12.4166,62 11.2,62 C9.9834,62 9,61.0101789 9,59.7856352 L9,6.6430944 C9,2.98053502 11.9612,0 15.6,0 L90.4,0 C94.0388,0 97,2.98053502 97,6.6430944 L97,59.7856352 C97,61.0101789 96.0166,62 94.8,62" id="Fill-1"></path>
                <path d="M45.5,25.8897947 L45.5,41.1093032 L60.719,33.4972989 L45.5,25.8897947 Z M43.25,47 C42.83825,47 42.42875,46.8874962 42.06875,46.6624887 C41.405,46.2552251 41,45.5307009 41,44.7499248 L41,22.2491731 C41,21.468397 41.405,20.7461228 42.06875,20.3343591 C42.7325,19.9248454 43.55825,19.8910943 44.25575,20.2353558 L66.75575,31.4834816 C67.5185,31.8637443 68,32.6445204 68,33.4972989 C68,34.3500774 67.5185,35.1263533 66.75575,35.5088661 L44.25575,46.761492 C43.9385,46.9212474 43.59425,47 43.25,47 Z" id="Fill-3"></path>
                <path d="M100.625,63.4989165 C100.625,64.6951159 99.645,65.6659443 98.4375,65.6659443 L59.0625,65.6659443 L56.875,65.6659443 L6.5625,65.6659443 C5.355,65.6659443 4.375,64.6951159 4.375,63.4989165 L4.375,61.3340557 L56.875,61.3340557 L59.0625,61.3340557 L100.625,61.3340557 L100.625,63.4989165 Z M102.8125,57 L59.0625,57 L56.875,57 L2.1875,57 C0.9778125,57 0,57.9686614 0,59.1670278 L0,63.4989165 C0,67.0831805 2.944375,70 6.5625,70 L56.875,70 L59.0625,70 L98.4375,70 C102.055625,70 105,67.0831805 105,63.4989165 L105,59.1670278 C105,57.9686614 104.022188,57 102.8125,57 Z" id="Fill-5"></path>
            </g>
        </g>
    </g>
</svg>